HIERARCHY
ROOT Hips
{
	OFFSET 0.00000 0.00000 0.00000
	CHANNELS 6 Xposition Yposition Zposition Zrotation Yrotation Xrotation 
	JOINT LHipJoint
	{
		OFFSET 0 0 0
		CHANNELS 3 Zrotation Yrotation Xrotation
		JOINT LeftUpLeg
		{
			OFFSET 1.54859 -1.61379 0.86856
			CHANNELS 3 Zrotation Yrotation Xrotation
			JOINT LeftLeg
			{
				OFFSET 2.25087 -6.18423 0.00000
				CHANNELS 3 Zrotation Yrotation Xrotation
				JOINT LeftFoot
				{
					OFFSET 2.40328 -6.60297 0.00000
					CHANNELS 3 Zrotation Yrotation Xrotation
					JOINT LeftToeBase
					{
						OFFSET 0.17435 -0.47901 2.02453
						CHANNELS 3 Zrotation Yrotation Xrotation
						End Site
						{
							OFFSET 0.00000 -0.00000 1.04844
						}
					}
				}
			}
		}
	}
	JOINT RHipJoint
	{
		OFFSET 0 0 0
		CHANNELS 3 Zrotation Yrotation Xrotation
		JOINT RightUpLeg
		{
			OFFSET -1.54669 -1.61379 0.86856
			CHANNELS 3 Zrotation Yrotation Xrotation
			JOINT RightLeg
			{
				OFFSET -2.28132 -6.26789 0.00000
				CHANNELS 3 Zrotation Yrotation Xrotation
				JOINT RightFoot
				{
					OFFSET -2.51636 -6.91365 0.00000
					CHANNELS 3 Zrotation Yrotation Xrotation
					JOINT RightToeBase
					{
						OFFSET -0.15124 -0.41552 2.21090
						CHANNELS 3 Zrotation Yrotation Xrotation
						End Site
						{
							OFFSET -0.00000 -0.00000 1.13399
						}
					}
				}
			}
		}
	}
	JOINT LowerBack
	{
		OFFSET 0 0 0
		CHANNELS 3 Zrotation Yrotation Xrotation
		JOINT Spine
		{
			OFFSET -0.04287 2.26161 -0.25690
			CHANNELS 3 Zrotation Yrotation Xrotation
			JOINT Spine1
			{
				OFFSET 0.02248 2.28395 -0.10140
				CHANNELS 3 Zrotation Yrotation Xrotation
				JOINT Neck
				{
					OFFSET 0 0 0
					CHANNELS 3 Zrotation Yrotation Xrotation
					JOINT Neck1
					{
						OFFSET -0.11644 1.38496 0.11345
						CHANNELS 3 Zrotation Yrotation Xrotation
						JOINT Head
						{
							OFFSET 0.29383 1.36600 0.06642
							CHANNELS 3 Zrotation Yrotation Xrotation
							End Site
							{
								OFFSET 0.11075 1.41395 -0.00294
							}
						}
					}
				}
				JOINT LeftShoulder
				{
					OFFSET 0 0 0
					CHANNELS 3 Zrotation Yrotation Xrotation
					JOINT LeftArm
					{
						OFFSET 3.51628 0.59542 -0.30346
						CHANNELS 3 Zrotation Yrotation Xrotation
						JOINT LeftForeArm
						{
							OFFSET 4.76405 -0.00000 0.00000
							CHANNELS 3 Zrotation Yrotation Xrotation
							JOINT LeftHand
							{
								OFFSET 3.13759 -0.00000 -0.00000
								CHANNELS 3 Zrotation Yrotation Xrotation
								JOINT LeftFingerBase
								{
									OFFSET 0 0 0
									CHANNELS 3 Zrotation Yrotation Xrotation
									JOINT LeftHandIndex1
									{
										OFFSET 0.73226 -0.00000 -0.00000
										CHANNELS 3 Zrotation Yrotation Xrotation
										End Site
										{
											OFFSET 0.59037 -0.00000 -0.00000
										}
									}
								}
								JOINT LThumb
								{
									OFFSET 0 0 0
									CHANNELS 3 Zrotation Yrotation Xrotation
									End Site
									{
										OFFSET 0.59938 -0.00000 0.59938
									}
								}
							}
						}
					}
				}
				JOINT RightShoulder
				{
					OFFSET 0 0 0
					CHANNELS 3 Zrotation Yrotation Xrotation
					JOINT RightArm
					{
						OFFSET -3.30990 0.84213 -0.36430
						CHANNELS 3 Zrotation Yrotation Xrotation
						JOINT RightForeArm
						{
							OFFSET -5.10161 -0.00000 -0.00000
							CHANNELS 3 Zrotation Yrotation Xrotation
							JOINT RightHand
							{
								OFFSET -3.23267 -0.00000 -0.00000
								CHANNELS 3 Zrotation Yrotation Xrotation
								JOINT RightFingerBase
								{
									OFFSET 0 0 0
									CHANNELS 3 Zrotation Yrotation Xrotation
									JOINT RightHandIndex1
									{
										OFFSET -0.70200 -0.00000 -0.00000
										CHANNELS 3 Zrotation Yrotation Xrotation
										End Site
										{
											OFFSET -0.56597 -0.00000 -0.00000
										}
									}
								}
								JOINT RThumb
								{
									OFFSET 0 0 0
									CHANNELS 3 Zrotation Yrotation Xrotation
									End Site
									{
										OFFSET -0.57461 -0.00000 0.57461
									}
								}
							}
						}
					}
				}
			}
		}
	}
}
MOTION
Frames: 10
Frame Time: .0083333
-38.5484 14.9422 -1.6137 0 0 0 0 0 0 -21 0 0 0 0 0 0 0 0 0 0 0 0 0 0 21 0 0 0 0 0 0 0 0 0 0 0 0 0 0 0 0 0 0 0 0 0 0 -16 0 0 21 0 0 11 0 0 0 -8 0 0 0 0 0 0 0 0 0 0 0 0 0 0 0 0 0 0 0 0 8 0 0 0 0 0 0 0 0 0 0 0 0 0 0 0 0 0
-38.5484 14.9422 -1.6137 3.5347 69.2727 4.6249 0.0000 0.0000 0.0000 -6.9803 12.4055 -44.8237 13.8018 19.0528 71.5981 0.0149 -1.4378 3.2920 0.0188 0.8856 2.4340 0.0000 0.0000 0.0000 3.9913 -8.4235 -31.4478 -9.3370 -17.0198 57.2484 -0.4926 -7.8844 -18.4175 -1.1247 6.7362 -18.9361 -4.2937 1.3869 25.2201 1.2984 1.5746 10.6668 3.4336 0.9144 -2.3173 -6.7459 3.3401 -8.5209 3.7436 5.6411 -12.1047 2.3918 3.2116 -2.7787 0.0000 0.0000 0.0000 -81.3665 24.7713 38.0744 11.1473 -18.5136 -1.8224 -0.0000 0.0000 -13.4452 11.1612 25.3163 4.8226 -7.1250 0.0000 -0.0000 -19.5655 54.6351 -4.7680 0.0000 0.0000 0.0000 57.8175 26.0253 -6.5243 -56.9267 55.4338 -31.7968 0.0000 -0.0000 -7.6026 -23.8340 30.2454 -12.5449 7.1250 -0.0000 -0.0000 4.1887 2.4578 4.3760
-38.1233 14.9058 -1.6005 4.3303 69.6805 5.1094 0.0000 0.0000 0.0000 -5.7073 12.6501 -43.7486 13.0296 18.7928 69.2175 0.0078 -0.1244 1.7169 0.0552 -1.5161 -4.1702 0.0000 0.0000 0.0000 2.9217 -8.7510 -29.7463 -9.7094 -17.2431 58.5125 -0.5362 -8.2819 -19.2533 -0.9807 6.3037 -17.6681 -5.4768 1.5553 24.5815 1.2649 1.5306 10.4595 4.0930 0.8531 -2.2400 -6.9310 3.6282 -8.5966 3.9416 5.9868 -10.8849 2.5004 3.3551 -2.3866 0.0000 -0.0000 0.0000 -80.1010 25.6946 35.3736 11.1676 -18.5447 -1.8289 -0.0000 0.0000 -11.4466 10.1624 25.7138 4.4471 -7.1250 0.0000 -0.0000 -20.7824 54.8187 -5.1786 0.0000 -0.0000 0.0000 57.4281 23.7296 -8.0328 -55.5728 55.0099 -30.6847 0.0000 -0.0000 -9.4446 -23.5832 28.6129 -11.8079 7.1250 -0.0000 -0.0000 4.0961 0.7127 4.1573
-37.6933 14.8318 -1.5811 4.2893 70.2676 4.8756 0.0000 0.0000 0.0000 -4.2622 13.0382 -42.6792 12.1701 18.4616 66.5270 0.0029 0.2168 0.9699 0.3974 -4.0475 -11.2102 0.0000 0.0000 0.0000 2.1761 -9.2539 -28.1381 -10.1499 -17.4933 59.9882 -0.5289 -8.6698 -19.5313 -1.3644 7.3932 -20.8856 -3.7808 1.2888 22.8956 -0.7721 1.6114 11.1266 0.9509 0.9807 -0.6315 -4.9151 3.3584 -9.6893 5.2483 5.6291 -10.2661 2.6040 3.1084 -1.9442 -0.0000 -0.0000 0.0000 -74.1092 24.5357 35.6535 11.2428 -18.6594 -1.8528 -0.0000 0.0000 -11.6589 9.2116 26.2170 4.0978 -7.1250 0.0000 -0.0000 -22.0244 55.1043 -5.6668 -0.0000 -0.0000 0.0000 60.7625 22.3290 -11.5580 -54.0184 54.4930 -29.4153 0.0000 -0.0000 -10.9098 -21.7500 27.3201 -10.3763 7.1250 -0.0000 -0.0000 5.0085 -0.9955 4.9398
-37.2654 14.7307 -1.5495 3.7366 70.8644 3.9528 0.0000 0.0000 0.0000 -2.8789 13.9003 -41.3956 11.3103 18.0836 63.7851 -0.0043 -1.3500 -0.2358 1.0028 -6.3722 -17.8683 0.0000 0.0000 0.0000 1.5285 -9.6273 -26.2026 -10.5816 -17.7242 61.4152 -0.5934 -8.1255 -19.7154 -1.8133 8.4659 -24.1383 -4.5440 1.4617 22.3059 -0.7133 1.7031 11.0174 1.4371 0.9884 -0.4768 -5.6016 3.4665 -10.2399 6.1376 5.8236 -8.9505 3.0606 3.2177 -1.4833 0.0000 0.0000 0.0000 -72.5600 24.3122 32.9676 10.7217 -17.8604 -1.6896 -0.0000 0.0000 -9.9735 8.8884 26.3679 3.9732 -7.1250 0.0000 -0.0000 -22.4365 55.1814 -5.8240 0.0000 0.0000 0.0000 60.9082 20.1421 -13.7060 -51.8921 53.7307 -27.6925 0.0000 -0.0000 -13.2773 -18.4289 25.8465 -8.2655 7.1250 -0.0000 -0.0000 6.8452 -3.0975 6.5127
-36.8366 14.6350 -1.5050 2.7951 71.4066 2.5603 0.0000 0.0000 0.0000 -1.4097 15.0072 -40.1391 10.4850 17.6737 61.0975 -0.0254 -3.4013 -0.7726 1.5914 -7.9575 -22.5850 0.0000 0.0000 0.0000 1.0269 -9.8761 -24.0531 -10.9764 -17.9235 62.7049 -0.6336 -7.5088 -19.6036 -2.2016 9.2739 -26.6559 -6.2939 1.9470 22.8486 0.1219 1.8757 10.0808 3.2559 1.0112 -1.8267 -7.1684 3.6838 -10.6672 7.1353 6.1568 -6.6798 3.7501 3.3991 -0.7763 -0.0000 -0.0000 0.0000 -72.2939 25.1832 29.3803 10.1852 -17.0288 -1.5287 -0.0000 0.0000 -7.7875 8.9595 26.2847 3.9937 -7.1250 0.0000 -0.0000 -22.3142 55.1184 -5.7549 -0.0000 -0.0000 0.0000 60.0401 16.3936 -14.9818 -49.8711 52.9434 -26.0712 0.0000 -0.0000 -16.3518 -14.3367 24.4897 -6.0476 7.1250 -0.0000 -0.0000 9.2387 -5.0755 8.4988
-36.4018 14.5402 -1.4604 0.8995 72.1864 0.6160 0.0000 0.0000 0.0000 0.2065 15.9984 -39.6813 9.7916 17.2910 58.7894 -0.0622 -4.9506 -0.5698 1.7597 -8.3465 -23.7717 0.0000 0.0000 0.0000 0.9551 -10.3127 -22.2431 -11.3368 -18.0960 63.8705 -0.6153 -7.4386 -19.3554 -2.3915 9.6379 -27.8119 -6.6476 2.1541 22.5837 0.1251 2.0167 9.4253 3.4200 1.0834 -2.4362 -7.5845 3.5673 -10.9496 8.4505 5.9710 -4.9726 4.3360 3.3106 -0.2054 0.0000 -0.0000 0.0000 -69.9545 25.1312 27.2887 9.8833 -16.5568 -1.4415 -0.0000 0.0000 -7.2107 9.3077 26.3705 4.1636 -7.1250 0.0000 -0.0000 -22.0258 55.2646 -5.7549 0.0000 -0.0000 0.0000 60.8154 12.8684 -17.1733 -47.6849 52.0180 -24.3371 0.0000 -0.0000 -19.2476 -10.9855 23.2619 -4.3839 7.1250 -0.0000 -0.0000 11.2507 -6.7058 10.0607
-35.9638 14.4431 -1.4179 -0.6200 73.2208 -0.6736 0.0000 0.0000 0.0000 1.3724 16.8022 -39.8598 9.2628 16.9739 56.9946 -0.0854 -5.7209 -0.5079 1.7382 -8.2981 -23.6232 0.0000 0.0000 0.0000 0.7498 -11.0550 -20.8212 -11.6911 -18.2570 65.0064 -0.5387 -7.8133 -18.8612 -2.4925 9.8242 -28.4093 -6.4754 2.1322 21.3013 -0.3903 2.0770 9.2823 2.7828 1.1101 -1.9421 -7.6152 3.2248 -10.9799 10.3347 5.5209 -4.2775 4.5170 3.1088 0.0239 -0.0000 0.0000 0.0000 -66.6084 24.0782 26.6592 9.9062 -16.5928 -1.4481 -0.0000 0.0000 -8.2635 10.0662 26.9985 4.6074 -7.1250 0.0000 -0.0000 -21.6751 55.9944 -6.0479 -0.0000 0.0000 0.0000 62.4771 10.4054 -20.3015 -44.9779 50.7577 -22.2217 0.0000 -0.0000 -22.4765 -10.0531 21.7233 -3.7542 7.1250 -0.0000 -0.0000 11.7989 -8.3241 10.1907
-35.5271 14.3490 -1.3800 -1.8456 74.3631 -1.5604 0.0000 0.0000 0.0000 2.3189 17.2580 -40.2311 8.9164 16.7536 55.8007 -0.0785 -5.6554 -0.8268 2.1439 -9.1596 -26.2960 0.0000 0.0000 0.0000 0.3903 -11.9908 -19.7153 -12.0809 -18.4246 66.2450 -0.4512 -8.0030 -18.0578 -2.5485 9.9255 -28.7358 -7.2932 2.1483 20.3922 -0.2438 1.9683 8.8474 3.4422 1.0278 -1.9633 -8.7428 3.0383 -11.1935 11.9939 5.3488 -3.2609 5.2312 3.0714 0.3136 0.0000 0.0000 0.0000 -64.9309 23.5835 25.4383 10.1503 -16.9744 -1.5185 -0.0000 0.0000 -9.1684 11.3398 27.6568 5.3182 -7.1250 0.0000 -0.0000 -20.8290 56.8642 -6.2419 0.0000 0.0000 0.0000 62.9307 8.1618 -22.9683 -41.9582 49.1882 -19.9089 0.0000 -0.0000 -26.9158 -9.5458 20.5130 -3.3724 7.1250 -0.0000 -0.0000 12.1081 -9.5661 10.1632
-35.0973 14.2457 -1.3456 -4.4821 75.3468 -3.7397 0.0000 0.0000 0.0000 3.7069 17.4881 -40.6702 8.7428 16.6393 55.1962 -0.0582 -5.3314 -1.4483 2.8294 -10.4137 -30.3270 0.0000 0.0000 0.0000 0.4854 -12.6570 -18.9651 -12.5386 -18.6092 67.6862 -0.3539 -8.2296 -17.1225 -2.5009 9.8395 -28.4586 -7.7279 2.0602 19.4313 -0.1580 1.8141 8.4902 3.8297 0.9307 -1.8530 -9.9991 2.8605 -11.3682 13.9238 5.2247 -2.4998 6.0589 3.0714 0.5134 0.0000 -0.0000 0.0000 -63.2767 22.8649 24.1572 10.5152 -17.5413 -1.6268 -0.0000 0.0000 -10.1599 12.6251 28.3485 6.0710 -7.1250 0.0000 -0.0000 -19.9849 57.7812 -6.4220 0.0000 -0.0000 0.0000 63.6203 6.5345 -25.8677 -38.9702 47.4478 -17.6769 0.0000 -0.0000 -31.7439 -7.5080 19.4084 -2.5077 7.1250 -0.0000 -0.0000 13.4113 -10.8216 10.9674
